<svg width="164" height="34" viewBox="0 0 164 34" fill="none" xmlns="http://www.w3.org/2000/svg">
<path d="M90.0611 5.64085C90.3253 5.4967 90.6951 5.31599 91.2234 5.09036C91.8257 4.81041 92.4375 4.07921 92.1744 2.88943C91.9272 1.73308 90.8177 0.136963 89.4134 0.136963C89.2307 0.136892 89.0491 0.164007 88.8745 0.217396L88.6833 0.271714C83.137 1.94304 82.4883 2.69827 82.2241 3.50051C82.0593 3.98833 82.1417 4.36647 82.4967 5.94483C83.2459 9.24674 85.2249 18.0223 82.2051 22.0314C81.2383 23.3026 79.8245 23.9973 77.8993 24.1414C75.9646 23.9973 74.5603 23.3057 73.5925 22.0314C70.5726 18.0264 72.5527 9.25092 73.3008 5.94483C73.6559 4.36647 73.7393 3.98833 73.5745 3.50051C73.3008 2.69827 72.6521 1.94095 67.1058 0.271714L66.923 0.217396C66.7488 0.164002 66.5675 0.136886 66.3852 0.136963C64.9798 0.136963 63.8757 1.73308 63.621 2.89674C63.3653 4.07712 63.976 4.80832 64.5794 5.09036C65.0982 5.31599 65.4638 5.4967 65.7279 5.64085C64.4515 8.08517 61.3038 14.2722 63.0737 21.9927C65.4638 32.356 74.2412 33.4747 77.8993 33.4747C81.5574 33.4747 90.3253 32.356 92.7154 21.9927C94.4948 14.2701 91.3481 8.08308 90.0611 5.64085ZM67.2981 13.0793C67.4978 13.0787 67.6931 13.1367 67.8594 13.246C68.0257 13.3553 68.1554 13.511 68.2321 13.6933C68.3087 13.8756 68.3289 14.0762 68.29 14.2699C68.2511 14.4635 68.1549 14.6413 68.0137 14.7809C67.8724 14.9204 67.6924 15.0153 67.4965 15.0535C67.3006 15.0917 67.0976 15.0716 66.9133 14.9956C66.729 14.9196 66.5717 14.7913 66.4613 14.6268C66.3509 14.4623 66.2924 14.2691 66.2932 14.0717C66.2946 13.8087 66.401 13.5569 66.5892 13.3711C66.7773 13.1853 67.0321 13.0804 67.2981 13.0793ZM68.9211 6.73035C69.1213 6.73035 69.3171 6.78907 69.4836 6.89907C69.6501 7.00908 69.7798 7.16543 69.8564 7.34835C69.933 7.53126 69.953 7.73252 69.9138 7.92667C69.8747 8.12082 69.7782 8.29912 69.6365 8.43903C69.4948 8.57894 69.3143 8.67417 69.1179 8.71266C68.9215 8.75116 68.7179 8.73119 68.533 8.65529C68.348 8.57939 68.19 8.45096 68.0789 8.28626C67.9678 8.12156 67.9086 7.92798 67.9088 7.73001C67.9084 7.59853 67.9343 7.46827 67.985 7.34673C68.0358 7.22519 68.1104 7.11477 68.2044 7.02185C68.2985 6.92893 68.4103 6.85533 68.5333 6.8053C68.6563 6.75527 68.7881 6.7298 68.9211 6.73035ZM67.7081 20.265C67.8404 20.265 67.9715 20.2907 68.0938 20.3408C68.2161 20.3909 68.3273 20.4643 68.4209 20.5568C68.5145 20.6494 68.5887 20.7592 68.6394 20.8801C68.69 21.001 68.7161 21.1306 68.7161 21.2615C68.7161 21.3924 68.69 21.5219 68.6394 21.6429C68.5887 21.7638 68.5145 21.8736 68.4209 21.9662C68.3273 22.0587 68.2161 22.1321 68.0938 22.1822C67.9715 22.2323 67.8404 22.258 67.7081 22.258C67.4407 22.258 67.1843 22.153 66.9953 21.9662C66.8062 21.7793 66.7 21.5258 66.7 21.2615C66.7 20.9972 66.8062 20.7437 66.9953 20.5568C67.1843 20.37 67.4407 20.265 67.7081 20.265ZM71.8226 27.7337C71.6234 27.7329 71.429 27.6738 71.2637 27.5639C71.0984 27.454 70.9697 27.2983 70.8939 27.1162C70.818 26.9342 70.7983 26.734 70.8373 26.5409C70.8763 26.3478 70.9722 26.1704 71.1129 26.0311C71.2537 25.8918 71.433 25.7968 71.6283 25.7581C71.8236 25.7193 72.0261 25.7386 72.2103 25.8134C72.3945 25.8882 72.5523 26.0153 72.6636 26.1786C72.7749 26.3418 72.8349 26.534 72.8359 26.7309C72.837 26.863 72.8116 26.9939 72.7611 27.1162C72.7107 27.2385 72.6361 27.3496 72.5419 27.4432C72.4476 27.5368 72.3355 27.6109 72.212 27.6613C72.0886 27.7117 71.9562 27.7374 71.8226 27.7368V27.7337ZM76.886 29.0917C76.887 28.895 76.9469 28.7031 77.0581 28.54C77.1692 28.3769 77.3267 28.25 77.5107 28.1752C77.6947 28.1005 77.8969 28.0812 78.092 28.1198C78.287 28.1584 78.4661 28.2532 78.6068 28.3923C78.7474 28.5313 78.8433 28.7084 78.8824 28.9012C78.9215 29.094 78.9019 29.294 78.8263 29.4758C78.7507 29.6577 78.6223 29.8134 78.4573 29.9233C78.2924 30.0332 78.0982 30.0924 77.8993 30.0934C77.6319 30.0926 77.3756 29.9877 77.1859 29.8013C76.9963 29.615 76.8885 29.3623 76.886 29.0979V29.0917ZM87.4893 14.0717C87.4901 13.8746 87.5501 13.6821 87.6615 13.5187C87.773 13.3553 87.931 13.2282 88.1155 13.1536C88.3 13.0789 88.5028 13.06 88.6981 13.0993C88.8935 13.1385 89.0727 13.2342 89.2131 13.3742C89.3535 13.5141 89.4487 13.6921 89.4868 13.8855C89.5249 14.079 89.5041 14.2793 89.427 14.4611C89.3499 14.6428 89.2201 14.7979 89.0538 14.9067C88.8876 15.0156 88.6925 15.0732 88.4931 15.0724C88.3604 15.0728 88.229 15.0471 88.1065 14.9969C87.984 14.9466 87.8728 14.8728 87.7794 14.7797C87.6859 14.6866 87.6122 14.576 87.5624 14.4545C87.5126 14.3329 87.4878 14.2028 87.4893 14.0717ZM86.8765 8.73176C86.6759 8.73342 86.4795 8.67617 86.3119 8.56726C86.1444 8.45836 86.0133 8.30272 85.9354 8.12008C85.8574 7.93744 85.8361 7.73602 85.8741 7.54139C85.9121 7.34675 86.0077 7.16766 86.1489 7.02683C86.29 6.886 86.4702 6.78978 86.6667 6.75036C86.8633 6.71095 87.0672 6.73013 87.2527 6.80545C87.4381 6.88078 87.5968 7.00887 87.7085 7.17348C87.8203 7.33808 87.88 7.53178 87.8803 7.73001C87.8797 7.99391 87.7741 8.24698 87.5862 8.43446C87.3984 8.62194 87.1434 8.72874 86.8765 8.73176ZM88.081 22.2612C87.8137 22.2612 87.5573 22.1562 87.3682 21.9693C87.1792 21.7824 87.073 21.5289 87.073 21.2646C87.073 21.0003 87.1792 20.7469 87.3682 20.56C87.5573 20.3731 87.8137 20.2681 88.081 20.2681C88.2134 20.2681 88.3445 20.2939 88.4668 20.344C88.5891 20.394 88.7002 20.4674 88.7938 20.56C88.8874 20.6525 88.9617 20.7624 89.0123 20.8833C89.063 21.0042 89.089 21.1338 89.089 21.2646C89.089 21.3955 89.063 21.5251 89.0123 21.646C88.9617 21.7669 88.8874 21.8767 88.7938 21.9693C88.7002 22.0618 88.5891 22.1352 88.4668 22.1853C88.3445 22.2354 88.2134 22.2612 88.081 22.2612ZM83.9665 25.7427C84.1666 25.7417 84.3624 25.7995 84.5292 25.9088C84.696 26.018 84.8261 26.1738 84.9031 26.3564C84.9801 26.5389 85.0005 26.74 84.9616 26.934C84.9228 27.1281 84.8265 27.3063 84.6849 27.4461C84.5434 27.5859 84.363 27.6809 84.1667 27.7191C83.9704 27.7573 83.767 27.737 83.5824 27.6606C83.3978 27.5843 83.2404 27.4555 83.13 27.2905C83.0197 27.1255 82.9614 26.9318 82.9627 26.7341C82.9641 26.4714 83.0703 26.2199 83.2583 26.0342C83.4463 25.8486 83.7008 25.7438 83.9665 25.7427Z" fill="#231F20"/>
<path d="M0 26.4884L14.7316 8.6773H0.718511V0.506592H27.874V7.5105L13.3453 25.2203H28.3347V33.391H0V26.4884Z" fill="#231F20"/>
<path d="M32.4385 0.506592H42.1923V25.2203H59.9014V33.391H32.4385V0.506592Z" fill="#231F20"/>
<path d="M128.325 28.3666C124.904 32.1222 120.336 34 114.62 34C109.419 34 105.184 32.3677 101.916 29.103C98.6474 25.8384 97.0132 21.7868 97.0132 16.9483C97.0132 12.1432 98.6474 8.11743 101.916 4.87088C105.184 1.62432 109.419 0.000696387 114.62 0C119.857 0 124.083 1.58985 127.3 4.76955L120.879 11.3159C119.168 9.59168 117.217 8.72886 115.027 8.72746C112.837 8.72607 110.98 9.50428 109.457 11.0621C107.934 12.6185 107.173 14.5806 107.173 16.9483C107.173 19.3857 107.909 21.3819 109.38 22.9369C110.852 24.4919 112.734 25.2701 115.027 25.2715C117.901 25.2715 120.261 24.0528 122.106 21.6155L128.325 28.3666Z" fill="#231F20"/>
<path d="M131.815 0.506592H141.568V15.934L151.065 0.506592H162.306L152.04 14.8173L164 33.391H152.604L146.291 22.379L141.568 28.517V33.3889H131.815V0.506592Z" fill="#231F20"/>
</svg>
